<mxfile host="app.diagrams.net" modified="2023-12-27T08:25:26.922Z" agent="Mozilla/5.0 (Macintosh; Intel Mac OS X 10_15_7) AppleWebKit/537.36 (KHTML, like Gecko) Chrome/120.0.0.0 Safari/537.36 Edg/120.0.0.0" etag="YCwHx-4sFKOEboA940aj" version="22.1.12" type="github">
  <diagram id="prtHgNgQTEPvFCAcTncT" name="Page-1">
    <mxGraphModel dx="1194" dy="648" grid="1" gridSize="10" guides="1" tooltips="1" connect="1" arrows="1" fold="1" page="1" pageScale="1" pageWidth="827" pageHeight="1169" math="0" shadow="0">
      <root>
        <mxCell id="0" />
        <mxCell id="1" parent="0" />
        <mxCell id="dNxyNK7c78bLwvsdeMH5-19" value="支付流程图" style="swimlane;html=1;childLayout=stackLayout;resizeParent=1;resizeParentMax=0;horizontal=0;startSize=20;horizontalStack=0;" parent="1" vertex="1">
          <mxGeometry x="40" y="120" width="1170" height="480" as="geometry" />
        </mxCell>
        <mxCell id="dNxyNK7c78bLwvsdeMH5-20" value="视频号" style="swimlane;html=1;startSize=20;horizontal=0;" parent="dNxyNK7c78bLwvsdeMH5-19" vertex="1">
          <mxGeometry x="20" width="1150" height="120" as="geometry" />
        </mxCell>
        <mxCell id="fAPoxhiQ4ROZtiNnSv8x-24" value="" style="edgeStyle=orthogonalEdgeStyle;rounded=0;orthogonalLoop=1;jettySize=auto;html=1;" parent="dNxyNK7c78bLwvsdeMH5-20" target="dNxyNK7c78bLwvsdeMH5-30" edge="1">
          <mxGeometry relative="1" as="geometry">
            <mxPoint x="250" y="60" as="sourcePoint" />
          </mxGeometry>
        </mxCell>
        <mxCell id="dNxyNK7c78bLwvsdeMH5-30" value="用户支付成功" style="rounded=0;whiteSpace=wrap;html=1;fontFamily=Helvetica;fontSize=12;fontColor=#000000;align=center;" parent="dNxyNK7c78bLwvsdeMH5-20" vertex="1">
          <mxGeometry x="300" y="30" width="80" height="60" as="geometry" />
        </mxCell>
        <mxCell id="fAPoxhiQ4ROZtiNnSv8x-74" value="用户支付成功" style="rounded=0;whiteSpace=wrap;html=1;fontFamily=Helvetica;fontSize=12;fontColor=#000000;align=center;" parent="dNxyNK7c78bLwvsdeMH5-20" vertex="1">
          <mxGeometry x="180" y="30" width="80" height="60" as="geometry" />
        </mxCell>
        <mxCell id="fAPoxhiQ4ROZtiNnSv8x-76" style="edgeStyle=orthogonalEdgeStyle;rounded=0;orthogonalLoop=1;jettySize=auto;html=1;exitX=1;exitY=0.5;exitDx=0;exitDy=0;entryX=0;entryY=0.5;entryDx=0;entryDy=0;" parent="dNxyNK7c78bLwvsdeMH5-20" source="fAPoxhiQ4ROZtiNnSv8x-75" target="fAPoxhiQ4ROZtiNnSv8x-74" edge="1">
          <mxGeometry relative="1" as="geometry" />
        </mxCell>
        <mxCell id="fAPoxhiQ4ROZtiNnSv8x-75" value="用户支付成功" style="rounded=0;whiteSpace=wrap;html=1;fontFamily=Helvetica;fontSize=12;fontColor=#000000;align=center;" parent="dNxyNK7c78bLwvsdeMH5-20" vertex="1">
          <mxGeometry x="60" y="30" width="80" height="60" as="geometry" />
        </mxCell>
        <mxCell id="UgfzNqQWA1Q9PzEDMbGg-51" value="审核接口" style="rounded=0;whiteSpace=wrap;html=1;fontFamily=Helvetica;fontSize=12;fontColor=#000000;align=center;" vertex="1" parent="dNxyNK7c78bLwvsdeMH5-20">
          <mxGeometry x="930" y="30" width="80" height="60" as="geometry" />
        </mxCell>
        <mxCell id="fAPoxhiQ4ROZtiNnSv8x-16" value="多平台" style="swimlane;html=1;startSize=20;horizontal=0;" parent="dNxyNK7c78bLwvsdeMH5-19" vertex="1">
          <mxGeometry x="20" y="120" width="1150" height="120" as="geometry" />
        </mxCell>
        <mxCell id="fAPoxhiQ4ROZtiNnSv8x-72" style="edgeStyle=orthogonalEdgeStyle;rounded=0;orthogonalLoop=1;jettySize=auto;html=1;exitX=1;exitY=0.5;exitDx=0;exitDy=0;entryX=0;entryY=0.5;entryDx=0;entryDy=0;" parent="fAPoxhiQ4ROZtiNnSv8x-16" source="fAPoxhiQ4ROZtiNnSv8x-19" target="fAPoxhiQ4ROZtiNnSv8x-64" edge="1">
          <mxGeometry relative="1" as="geometry" />
        </mxCell>
        <mxCell id="fAPoxhiQ4ROZtiNnSv8x-19" value="下单" style="rounded=0;whiteSpace=wrap;html=1;fontFamily=Helvetica;fontSize=12;fontColor=#000000;align=center;" parent="fAPoxhiQ4ROZtiNnSv8x-16" vertex="1">
          <mxGeometry x="60" y="30" width="80" height="60" as="geometry" />
        </mxCell>
        <mxCell id="fAPoxhiQ4ROZtiNnSv8x-73" style="edgeStyle=orthogonalEdgeStyle;rounded=0;orthogonalLoop=1;jettySize=auto;html=1;exitX=1;exitY=0.5;exitDx=0;exitDy=0;entryX=0;entryY=0.5;entryDx=0;entryDy=0;" parent="fAPoxhiQ4ROZtiNnSv8x-16" source="fAPoxhiQ4ROZtiNnSv8x-64" target="fAPoxhiQ4ROZtiNnSv8x-68" edge="1">
          <mxGeometry relative="1" as="geometry" />
        </mxCell>
        <mxCell id="fAPoxhiQ4ROZtiNnSv8x-64" value="下支付订单" style="rounded=0;whiteSpace=wrap;html=1;fontFamily=Helvetica;fontSize=12;fontColor=#000000;align=center;" parent="fAPoxhiQ4ROZtiNnSv8x-16" vertex="1">
          <mxGeometry x="180" y="30" width="80" height="60" as="geometry" />
        </mxCell>
        <mxCell id="fAPoxhiQ4ROZtiNnSv8x-68" value="支付路由" style="rounded=0;whiteSpace=wrap;html=1;fontFamily=Helvetica;fontSize=12;fontColor=#000000;align=center;" parent="fAPoxhiQ4ROZtiNnSv8x-16" vertex="1">
          <mxGeometry x="300" y="30" width="80" height="60" as="geometry" />
        </mxCell>
        <mxCell id="UgfzNqQWA1Q9PzEDMbGg-3" style="edgeStyle=orthogonalEdgeStyle;rounded=0;orthogonalLoop=1;jettySize=auto;html=1;exitX=0.5;exitY=1;exitDx=0;exitDy=0;" edge="1" parent="fAPoxhiQ4ROZtiNnSv8x-16">
          <mxGeometry relative="1" as="geometry">
            <mxPoint x="460" y="90" as="sourcePoint" />
            <mxPoint x="460" y="90" as="targetPoint" />
          </mxGeometry>
        </mxCell>
        <mxCell id="UgfzNqQWA1Q9PzEDMbGg-49" value="退款成功通知" style="rounded=0;whiteSpace=wrap;html=1;fontFamily=Helvetica;fontSize=12;fontColor=#000000;align=center;" vertex="1" parent="fAPoxhiQ4ROZtiNnSv8x-16">
          <mxGeometry x="1050" y="30" width="80" height="60" as="geometry" />
        </mxCell>
        <mxCell id="dNxyNK7c78bLwvsdeMH5-21" value="订单中心" style="swimlane;html=1;startSize=20;horizontal=0;" parent="dNxyNK7c78bLwvsdeMH5-19" vertex="1">
          <mxGeometry x="20" y="240" width="1150" height="120" as="geometry" />
        </mxCell>
        <mxCell id="dNxyNK7c78bLwvsdeMH5-26" value="下单" style="rounded=0;whiteSpace=wrap;html=1;fontFamily=Helvetica;fontSize=12;fontColor=#000000;align=center;" parent="dNxyNK7c78bLwvsdeMH5-21" vertex="1">
          <mxGeometry x="60" y="30" width="80" height="60" as="geometry" />
        </mxCell>
        <mxCell id="fAPoxhiQ4ROZtiNnSv8x-25" style="edgeStyle=orthogonalEdgeStyle;rounded=0;orthogonalLoop=1;jettySize=auto;html=1;exitX=0.5;exitY=1;exitDx=0;exitDy=0;entryX=0.5;entryY=0;entryDx=0;entryDy=0;" parent="dNxyNK7c78bLwvsdeMH5-19" source="dNxyNK7c78bLwvsdeMH5-30" target="fAPoxhiQ4ROZtiNnSv8x-19" edge="1">
          <mxGeometry relative="1" as="geometry" />
        </mxCell>
        <mxCell id="fAPoxhiQ4ROZtiNnSv8x-26" value="支付成功回调" style="edgeLabel;html=1;align=center;verticalAlign=middle;resizable=0;points=[];" parent="fAPoxhiQ4ROZtiNnSv8x-25" vertex="1" connectable="0">
          <mxGeometry x="0.0067" y="2" relative="1" as="geometry">
            <mxPoint as="offset" />
          </mxGeometry>
        </mxCell>
        <mxCell id="fAPoxhiQ4ROZtiNnSv8x-27" style="edgeStyle=orthogonalEdgeStyle;rounded=0;orthogonalLoop=1;jettySize=auto;html=1;exitX=0.5;exitY=1;exitDx=0;exitDy=0;" parent="dNxyNK7c78bLwvsdeMH5-19" source="fAPoxhiQ4ROZtiNnSv8x-19" target="dNxyNK7c78bLwvsdeMH5-26" edge="1">
          <mxGeometry relative="1" as="geometry" />
        </mxCell>
        <mxCell id="fAPoxhiQ4ROZtiNnSv8x-29" style="edgeStyle=orthogonalEdgeStyle;rounded=0;orthogonalLoop=1;jettySize=auto;html=1;exitX=0.5;exitY=1;exitDx=0;exitDy=0;" parent="dNxyNK7c78bLwvsdeMH5-19" source="dNxyNK7c78bLwvsdeMH5-26" target="fAPoxhiQ4ROZtiNnSv8x-28" edge="1">
          <mxGeometry relative="1" as="geometry" />
        </mxCell>
        <mxCell id="fAPoxhiQ4ROZtiNnSv8x-66" style="edgeStyle=orthogonalEdgeStyle;rounded=0;orthogonalLoop=1;jettySize=auto;html=1;exitX=0.5;exitY=1;exitDx=0;exitDy=0;entryX=0.5;entryY=0;entryDx=0;entryDy=0;" parent="dNxyNK7c78bLwvsdeMH5-19" source="fAPoxhiQ4ROZtiNnSv8x-64" target="fAPoxhiQ4ROZtiNnSv8x-65" edge="1">
          <mxGeometry relative="1" as="geometry" />
        </mxCell>
        <mxCell id="fAPoxhiQ4ROZtiNnSv8x-67" value="下支付单" style="edgeLabel;html=1;align=center;verticalAlign=middle;resizable=0;points=[];" parent="fAPoxhiQ4ROZtiNnSv8x-66" vertex="1" connectable="0">
          <mxGeometry x="-0.0889" y="-1" relative="1" as="geometry">
            <mxPoint as="offset" />
          </mxGeometry>
        </mxCell>
        <mxCell id="fAPoxhiQ4ROZtiNnSv8x-70" style="edgeStyle=orthogonalEdgeStyle;rounded=0;orthogonalLoop=1;jettySize=auto;html=1;exitX=0.5;exitY=1;exitDx=0;exitDy=0;entryX=0.5;entryY=0;entryDx=0;entryDy=0;" parent="dNxyNK7c78bLwvsdeMH5-19" source="fAPoxhiQ4ROZtiNnSv8x-68" target="fAPoxhiQ4ROZtiNnSv8x-69" edge="1">
          <mxGeometry relative="1" as="geometry" />
        </mxCell>
        <mxCell id="fAPoxhiQ4ROZtiNnSv8x-71" value="支付路由" style="edgeLabel;html=1;align=center;verticalAlign=middle;resizable=0;points=[];" parent="fAPoxhiQ4ROZtiNnSv8x-70" vertex="1" connectable="0">
          <mxGeometry x="-0.0222" y="-2" relative="1" as="geometry">
            <mxPoint as="offset" />
          </mxGeometry>
        </mxCell>
        <mxCell id="dNxyNK7c78bLwvsdeMH5-22" value="支付系统" style="swimlane;html=1;startSize=20;horizontal=0;" parent="dNxyNK7c78bLwvsdeMH5-19" vertex="1">
          <mxGeometry x="20" y="360" width="1150" height="120" as="geometry" />
        </mxCell>
        <mxCell id="fAPoxhiQ4ROZtiNnSv8x-28" value="创建平台订单" style="rounded=0;whiteSpace=wrap;html=1;fontFamily=Helvetica;fontSize=12;fontColor=#000000;align=center;" parent="dNxyNK7c78bLwvsdeMH5-22" vertex="1">
          <mxGeometry x="60" y="30" width="80" height="60" as="geometry" />
        </mxCell>
        <mxCell id="fAPoxhiQ4ROZtiNnSv8x-65" value="创建支付订单" style="rounded=0;whiteSpace=wrap;html=1;fontFamily=Helvetica;fontSize=12;fontColor=#000000;align=center;" parent="dNxyNK7c78bLwvsdeMH5-22" vertex="1">
          <mxGeometry x="180" y="30" width="80" height="60" as="geometry" />
        </mxCell>
        <mxCell id="fAPoxhiQ4ROZtiNnSv8x-69" value="支付路由" style="rounded=0;whiteSpace=wrap;html=1;fontFamily=Helvetica;fontSize=12;fontColor=#000000;align=center;" parent="dNxyNK7c78bLwvsdeMH5-22" vertex="1">
          <mxGeometry x="300" y="30" width="80" height="60" as="geometry" />
        </mxCell>
        <mxCell id="UgfzNqQWA1Q9PzEDMbGg-45" value="确定整个批次都申请" style="rounded=0;whiteSpace=wrap;html=1;fontFamily=Helvetica;fontSize=12;fontColor=#000000;align=center;" vertex="1" parent="dNxyNK7c78bLwvsdeMH5-22">
          <mxGeometry x="930" y="-210" width="80" height="60" as="geometry" />
        </mxCell>
        <mxCell id="fAPoxhiQ4ROZtiNnSv8x-77" value="发券通知" style="rounded=0;whiteSpace=wrap;html=1;fontFamily=Helvetica;fontSize=12;fontColor=#000000;align=center;" parent="dNxyNK7c78bLwvsdeMH5-22" vertex="1">
          <mxGeometry x="410" y="-330" width="80" height="60" as="geometry" />
        </mxCell>
        <mxCell id="fAPoxhiQ4ROZtiNnSv8x-87" value="退款成功通知" style="rounded=0;whiteSpace=wrap;html=1;fontFamily=Helvetica;fontSize=12;fontColor=#000000;align=center;" parent="dNxyNK7c78bLwvsdeMH5-22" vertex="1">
          <mxGeometry x="690" y="-330" width="80" height="60" as="geometry" />
        </mxCell>
        <mxCell id="fAPoxhiQ4ROZtiNnSv8x-78" value="发券通知" style="rounded=0;whiteSpace=wrap;html=1;fontFamily=Helvetica;fontSize=12;fontColor=#000000;align=center;" parent="dNxyNK7c78bLwvsdeMH5-22" vertex="1">
          <mxGeometry x="410" y="-210" width="80" height="60" as="geometry" />
        </mxCell>
        <mxCell id="fAPoxhiQ4ROZtiNnSv8x-79" style="edgeStyle=orthogonalEdgeStyle;rounded=0;orthogonalLoop=1;jettySize=auto;html=1;exitX=0.5;exitY=1;exitDx=0;exitDy=0;entryX=0.5;entryY=0;entryDx=0;entryDy=0;" parent="dNxyNK7c78bLwvsdeMH5-22" source="fAPoxhiQ4ROZtiNnSv8x-77" target="fAPoxhiQ4ROZtiNnSv8x-78" edge="1">
          <mxGeometry relative="1" as="geometry" />
        </mxCell>
        <mxCell id="fAPoxhiQ4ROZtiNnSv8x-88" value="多平台退款接口" style="rounded=0;whiteSpace=wrap;html=1;fontFamily=Helvetica;fontSize=12;fontColor=#000000;align=center;" parent="dNxyNK7c78bLwvsdeMH5-22" vertex="1">
          <mxGeometry x="690" y="-210" width="80" height="60" as="geometry" />
        </mxCell>
        <mxCell id="fAPoxhiQ4ROZtiNnSv8x-89" style="edgeStyle=orthogonalEdgeStyle;rounded=0;orthogonalLoop=1;jettySize=auto;html=1;exitX=0.5;exitY=1;exitDx=0;exitDy=0;" parent="dNxyNK7c78bLwvsdeMH5-22" source="fAPoxhiQ4ROZtiNnSv8x-87" target="fAPoxhiQ4ROZtiNnSv8x-88" edge="1">
          <mxGeometry relative="1" as="geometry" />
        </mxCell>
        <mxCell id="fAPoxhiQ4ROZtiNnSv8x-91" style="edgeStyle=orthogonalEdgeStyle;rounded=0;orthogonalLoop=1;jettySize=auto;html=1;exitX=0.5;exitY=1;exitDx=0;exitDy=0;" parent="dNxyNK7c78bLwvsdeMH5-22" source="fAPoxhiQ4ROZtiNnSv8x-88" target="fAPoxhiQ4ROZtiNnSv8x-90" edge="1">
          <mxGeometry relative="1" as="geometry" />
        </mxCell>
        <mxCell id="fAPoxhiQ4ROZtiNnSv8x-85" value="业务支付成功通知" style="rounded=0;whiteSpace=wrap;html=1;fontFamily=Helvetica;fontSize=12;fontColor=#000000;align=center;" parent="dNxyNK7c78bLwvsdeMH5-22" vertex="1">
          <mxGeometry x="530" y="-90" width="80" height="60" as="geometry" />
        </mxCell>
        <mxCell id="fAPoxhiQ4ROZtiNnSv8x-90" value="业务退款" style="rounded=0;whiteSpace=wrap;html=1;fontFamily=Helvetica;fontSize=12;fontColor=#000000;align=center;" parent="dNxyNK7c78bLwvsdeMH5-22" vertex="1">
          <mxGeometry x="690" y="-90" width="80" height="60" as="geometry" />
        </mxCell>
        <mxCell id="fAPoxhiQ4ROZtiNnSv8x-84" style="edgeStyle=orthogonalEdgeStyle;rounded=0;orthogonalLoop=1;jettySize=auto;html=1;exitX=1;exitY=0.5;exitDx=0;exitDy=0;entryX=0;entryY=0.5;entryDx=0;entryDy=0;" parent="dNxyNK7c78bLwvsdeMH5-22" source="fAPoxhiQ4ROZtiNnSv8x-80" target="fAPoxhiQ4ROZtiNnSv8x-83" edge="1">
          <mxGeometry relative="1" as="geometry" />
        </mxCell>
        <mxCell id="fAPoxhiQ4ROZtiNnSv8x-80" value="支付成功通知" style="rounded=0;whiteSpace=wrap;html=1;fontFamily=Helvetica;fontSize=12;fontColor=#000000;align=center;" parent="dNxyNK7c78bLwvsdeMH5-22" vertex="1">
          <mxGeometry x="410" y="30" width="80" height="60" as="geometry" />
        </mxCell>
        <mxCell id="fAPoxhiQ4ROZtiNnSv8x-81" style="edgeStyle=orthogonalEdgeStyle;rounded=0;orthogonalLoop=1;jettySize=auto;html=1;exitX=0.5;exitY=1;exitDx=0;exitDy=0;entryX=0.5;entryY=0;entryDx=0;entryDy=0;" parent="dNxyNK7c78bLwvsdeMH5-22" source="fAPoxhiQ4ROZtiNnSv8x-78" target="fAPoxhiQ4ROZtiNnSv8x-80" edge="1">
          <mxGeometry relative="1" as="geometry" />
        </mxCell>
        <mxCell id="fAPoxhiQ4ROZtiNnSv8x-82" value="支付成功通知" style="edgeLabel;html=1;align=center;verticalAlign=middle;resizable=0;points=[];" parent="fAPoxhiQ4ROZtiNnSv8x-81" vertex="1" connectable="0">
          <mxGeometry x="0.0778" relative="1" as="geometry">
            <mxPoint as="offset" />
          </mxGeometry>
        </mxCell>
        <mxCell id="fAPoxhiQ4ROZtiNnSv8x-83" value="支付成功通知业务线" style="rounded=0;whiteSpace=wrap;html=1;fontFamily=Helvetica;fontSize=12;fontColor=#000000;align=center;" parent="dNxyNK7c78bLwvsdeMH5-22" vertex="1">
          <mxGeometry x="530" y="30" width="80" height="60" as="geometry" />
        </mxCell>
        <mxCell id="fAPoxhiQ4ROZtiNnSv8x-86" style="edgeStyle=orthogonalEdgeStyle;rounded=0;orthogonalLoop=1;jettySize=auto;html=1;exitX=0.5;exitY=0;exitDx=0;exitDy=0;entryX=0.5;entryY=1;entryDx=0;entryDy=0;" parent="dNxyNK7c78bLwvsdeMH5-22" source="fAPoxhiQ4ROZtiNnSv8x-83" target="fAPoxhiQ4ROZtiNnSv8x-85" edge="1">
          <mxGeometry relative="1" as="geometry" />
        </mxCell>
        <mxCell id="fAPoxhiQ4ROZtiNnSv8x-134" value="退款接口" style="rounded=0;whiteSpace=wrap;html=1;fontFamily=Helvetica;fontSize=12;fontColor=#000000;align=center;" parent="dNxyNK7c78bLwvsdeMH5-22" vertex="1">
          <mxGeometry x="690" y="30" width="80" height="60" as="geometry" />
        </mxCell>
        <mxCell id="fAPoxhiQ4ROZtiNnSv8x-135" style="edgeStyle=orthogonalEdgeStyle;rounded=0;orthogonalLoop=1;jettySize=auto;html=1;exitX=0.5;exitY=1;exitDx=0;exitDy=0;entryX=0.5;entryY=0;entryDx=0;entryDy=0;" parent="dNxyNK7c78bLwvsdeMH5-22" source="fAPoxhiQ4ROZtiNnSv8x-90" target="fAPoxhiQ4ROZtiNnSv8x-134" edge="1">
          <mxGeometry relative="1" as="geometry" />
        </mxCell>
        <mxCell id="fAPoxhiQ4ROZtiNnSv8x-139" value="退款成功回调" style="rounded=0;whiteSpace=wrap;html=1;fontFamily=Helvetica;fontSize=12;fontColor=#000000;align=center;" parent="dNxyNK7c78bLwvsdeMH5-22" vertex="1">
          <mxGeometry x="1050" y="30" width="80" height="60" as="geometry" />
        </mxCell>
        <mxCell id="UgfzNqQWA1Q9PzEDMbGg-12" style="edgeStyle=orthogonalEdgeStyle;rounded=0;orthogonalLoop=1;jettySize=auto;html=1;exitX=1;exitY=0.5;exitDx=0;exitDy=0;entryX=0;entryY=0.5;entryDx=0;entryDy=0;" edge="1" parent="dNxyNK7c78bLwvsdeMH5-22" source="UgfzNqQWA1Q9PzEDMbGg-10" target="UgfzNqQWA1Q9PzEDMbGg-11">
          <mxGeometry relative="1" as="geometry" />
        </mxCell>
        <mxCell id="UgfzNqQWA1Q9PzEDMbGg-10" value="退款JOB" style="rounded=0;whiteSpace=wrap;html=1;fontFamily=Helvetica;fontSize=12;fontColor=#000000;align=center;" vertex="1" parent="dNxyNK7c78bLwvsdeMH5-22">
          <mxGeometry x="810" y="30" width="80" height="60" as="geometry" />
        </mxCell>
        <mxCell id="UgfzNqQWA1Q9PzEDMbGg-11" value="通路退款" style="rounded=0;whiteSpace=wrap;html=1;fontFamily=Helvetica;fontSize=12;fontColor=#000000;align=center;" vertex="1" parent="dNxyNK7c78bLwvsdeMH5-22">
          <mxGeometry x="930" y="30" width="80" height="60" as="geometry" />
        </mxCell>
        <mxCell id="UgfzNqQWA1Q9PzEDMbGg-46" style="edgeStyle=orthogonalEdgeStyle;rounded=0;orthogonalLoop=1;jettySize=auto;html=1;exitX=0.5;exitY=0;exitDx=0;exitDy=0;entryX=0.5;entryY=1;entryDx=0;entryDy=0;" edge="1" parent="dNxyNK7c78bLwvsdeMH5-22" source="UgfzNqQWA1Q9PzEDMbGg-11" target="UgfzNqQWA1Q9PzEDMbGg-45">
          <mxGeometry relative="1" as="geometry" />
        </mxCell>
        <mxCell id="UgfzNqQWA1Q9PzEDMbGg-50" style="edgeStyle=orthogonalEdgeStyle;rounded=0;orthogonalLoop=1;jettySize=auto;html=1;exitX=0.5;exitY=0;exitDx=0;exitDy=0;entryX=0.5;entryY=1;entryDx=0;entryDy=0;" edge="1" parent="dNxyNK7c78bLwvsdeMH5-19" source="UgfzNqQWA1Q9PzEDMbGg-45" target="UgfzNqQWA1Q9PzEDMbGg-51">
          <mxGeometry relative="1" as="geometry">
            <mxPoint x="990" y="110" as="targetPoint" />
          </mxGeometry>
        </mxCell>
        <mxCell id="UgfzNqQWA1Q9PzEDMbGg-52" style="edgeStyle=orthogonalEdgeStyle;rounded=0;orthogonalLoop=1;jettySize=auto;html=1;exitX=1;exitY=0.5;exitDx=0;exitDy=0;entryX=0;entryY=0.5;entryDx=0;entryDy=0;" edge="1" parent="dNxyNK7c78bLwvsdeMH5-19" source="UgfzNqQWA1Q9PzEDMbGg-45" target="UgfzNqQWA1Q9PzEDMbGg-49">
          <mxGeometry relative="1" as="geometry" />
        </mxCell>
        <mxCell id="UgfzNqQWA1Q9PzEDMbGg-53" style="edgeStyle=orthogonalEdgeStyle;rounded=0;orthogonalLoop=1;jettySize=auto;html=1;exitX=0.5;exitY=1;exitDx=0;exitDy=0;entryX=0.5;entryY=0;entryDx=0;entryDy=0;" edge="1" parent="dNxyNK7c78bLwvsdeMH5-19" source="UgfzNqQWA1Q9PzEDMbGg-49" target="fAPoxhiQ4ROZtiNnSv8x-139">
          <mxGeometry relative="1" as="geometry" />
        </mxCell>
      </root>
    </mxGraphModel>
  </diagram>
</mxfile>
